<?xml version="1.0" encoding="UTF-8" standalone="no"?> <svg width="64" color="rgb(74, 74, 251)" height="64" viewBox="0 0 64 64" fill="rgb(74, 74, 251)" xmlns="http://www.w3.org/2000/svg">
<path d="M56.34 17.27C56.2654 17.1214 56.1712 16.9835 56.06 16.86L42.13 2.94C41.8438 2.66648 41.4658 2.50958 41.07 2.5H20.92C19.6159 2.50264 18.3661 3.02185 17.444 3.94395C16.5218 4.86606 16.0026 6.11595 16 7.42V10.62H12.42C11.1159 10.6226 9.86606 11.1418 8.94395 12.064C8.02185 12.9861 7.50264 14.2359 7.5 15.54V56.54C7.50264 57.8441 8.02185 59.0939 8.94395 60.016C9.86606 60.9382 11.1159 61.4574 12.42 61.46H43.08C44.3772 61.4574 45.6211 60.9437 46.542 60.0302C47.463 59.1168 47.9868 57.8771 48 56.58V53.38H51.58C52.8841 53.3774 54.1339 52.8582 55.056 51.936C55.9782 51.0139 56.4974 49.7641 56.5 48.46V17.93C56.4993 17.7005 56.4445 17.4744 56.34 17.27V17.27ZM42.57 7.62L51.38 16.42H42.57V7.62ZM45 56.62C45 57.1292 44.7977 57.6176 44.4376 57.9776C44.0776 58.3377 43.5892 58.54 43.08 58.54H12.42C11.9108 58.54 11.4224 58.3377 11.0624 57.9776C10.7023 57.6176 10.5 57.1292 10.5 56.62V15.62C10.5 15.1108 10.7023 14.6224 11.0624 14.2624C11.4224 13.9023 11.9108 13.7 12.42 13.7H16V48.46C16.0026 49.7641 16.5218 51.0139 17.444 51.936C18.3661 52.8582 19.6159 53.3774 20.92 53.38H45V56.62ZM51.58 50.42H20.92C20.6645 50.4201 20.4115 50.3691 20.1759 50.2701C19.9403 50.1711 19.7268 50.0261 19.548 49.8436C19.3692 49.661 19.2286 49.4446 19.1345 49.207C19.0404 48.9695 18.9947 48.7155 19 48.46V7.46C18.9947 7.20452 19.0404 6.95054 19.1345 6.71296C19.2286 6.47538 19.3692 6.25897 19.548 6.07642C19.7268 5.89388 19.9403 5.74886 20.1759 5.64988C20.4115 5.5509 20.6645 5.49994 20.92 5.5H39.57V17.92C39.57 18.3178 39.728 18.6994 40.0093 18.9807C40.2906 19.262 40.6722 19.42 41.07 19.42H53.5V48.42C53.5053 48.6755 53.4596 48.9295 53.3655 49.167C53.2714 49.4046 53.1308 49.621 52.952 49.8036C52.7732 49.9861 52.5597 50.1311 52.3241 50.2301C52.0885 50.3291 51.8355 50.3801 51.58 50.38V50.42Z" fill="rgba(0, 102, 255, 0.895)"/>
</svg>

