<?xml version="1.0" encoding="UTF-8" standalone="no"?> <svg xmlns="http://www.w3.org/2000/svg" width="28" height="40" viewBox="0 0 38 50"><defs><style>.cls-1{fill:#fff}.cls-2{fill:#00c569}</style></defs><title>lock_2</title><g id="Layer_2" data-name="Layer 2"><g id="lock_2"><path class="cls-1" d="M11 22.5v-9.18A8.21 8.21 0 0 1 18.48 5 8 8 0 0 1 27 13v8H5.85A5.85 5.85 0 0 0 0 26.85v17.3A5.85 5.85 0 0 0 5.85 50h26.3A5.85 5.85 0 0 0 38 44.15v-17.3A5.85 5.85 0 0 0 32.15 21H32v-8A13 13 0 0 0 18.41 0 13.27 13.27 0 0 0 6 13.4v9.1m27 21.65a.85.85 0 0 1-.85.85H5.85a.85.85 0 0 1-.85-.85v-17.3a.85.85 0 0 1 .85-.85h26.3a.85.85 0 0 1 .85.85z"/><rect class="cls-2" x="16.5" y="31" width="5" height="9" rx="2.5" ry="2.5"/></g></g></svg>